<svg xmlns="http://www.w3.org/2000/svg" viewBox="0 0 320 200" fill="none">
  <rect width="320" height="200" rx="20" fill="#E8F2EC"/>
  <rect x="36" y="40" width="100" height="130" rx="10" fill="#fff" stroke="#2F6B4F" stroke-width="2" transform="rotate(-6 86 105)"/>
  <rect x="48" y="58" width="70" height="40" rx="4" fill="#EA580C" opacity="0.85" transform="rotate(-6 83 78)"/>
  <rect x="52" y="108" width="56" height="8" rx="2" fill="#C5D9CE" transform="rotate(-6 80 112)"/>
  <rect x="54" y="122" width="48" height="6" rx="2" fill="#C5D9CE" transform="rotate(-6 78 125)"/>
  <circle cx="220" cy="88" r="48" fill="#fff" stroke="#2F6B4F" stroke-width="2"/>
  <circle cx="220" cy="88" r="18" fill="#2F6B4F" opacity="0.2"/>
  <path d="M220 52v12M220 112v12M184 88h12M244 88h12" stroke="#2F6B4F" stroke-width="2" stroke-linecap="round"/>
  <circle cx="220" cy="88" r="6" fill="#EA580C"/>
  <path d="M148 150c20 18 56 22 88 8" stroke="#2F6B4F" stroke-width="2.5" stroke-linecap="round"/>
</svg>
